<svg width="162" height="37" viewBox="0 0 162 37" fill="none" xmlns="http://www.w3.org/2000/svg">
<path d="M18.684 10.728V15.66H8.388V20.988H16.092V25.776H8.388V36H2.232V10.728H18.684ZM25.0155 13.824C23.9355 13.824 23.0475 13.512 22.3515 12.888C21.6795 12.24 21.3435 11.448 21.3435 10.512C21.3435 9.552 21.6795 8.76 22.3515 8.136C23.0475 7.488 23.9355 7.164 25.0155 7.164C26.0715 7.164 26.9355 7.488 27.6075 8.136C28.3035 8.76 28.6515 9.552 28.6515 10.512C28.6515 11.448 28.3035 12.24 27.6075 12.888C26.9355 13.512 26.0715 13.824 25.0155 13.824ZM28.0755 15.912V36H21.9195V15.912H28.0755ZM38.6927 19.26C39.4127 18.156 40.3127 17.292 41.3927 16.668C42.4727 16.02 43.6727 15.696 44.9927 15.696V22.212H43.3007C41.7647 22.212 40.6127 22.548 39.8447 23.22C39.0767 23.868 38.6927 25.02 38.6927 26.676V36H32.5367V15.912H38.6927V19.26ZM66.8711 25.632C66.8711 26.208 66.8351 26.808 66.7631 27.432H52.8311C52.9271 28.68 53.3231 29.64 54.0191 30.312C54.7391 30.96 55.6151 31.284 56.6471 31.284C58.1831 31.284 59.2511 30.636 59.8511 29.34H66.4031C66.0671 30.66 65.4551 31.848 64.5671 32.904C63.7031 33.96 62.6111 34.788 61.2911 35.388C59.9711 35.988 58.4951 36.288 56.8631 36.288C54.8951 36.288 53.1431 35.868 51.6071 35.028C50.0711 34.188 48.8711 32.988 48.0071 31.428C47.1431 29.868 46.7111 28.044 46.7111 25.956C46.7111 23.868 47.1311 22.044 47.9711 20.484C48.8351 18.924 50.0351 17.724 51.5711 16.884C53.1071 16.044 54.8711 15.624 56.8631 15.624C58.8071 15.624 60.5351 16.032 62.0471 16.848C63.5591 17.664 64.7351 18.828 65.5751 20.34C66.4391 21.852 66.8711 23.616 66.8711 25.632ZM60.5711 24.012C60.5711 22.956 60.2111 22.116 59.4911 21.492C58.7711 20.868 57.8711 20.556 56.7911 20.556C55.7591 20.556 54.8831 20.856 54.1631 21.456C53.4671 22.056 53.0351 22.908 52.8671 24.012H60.5711Z" fill="#1D1617"/>
<path d="M92.4867 36L85.3367 25.25L79.0367 36H69.3367L80.5867 18.15L69.0867 0.899999H79.0367L86.0867 11.5L92.2867 0.899999H101.987L90.8367 18.6L102.437 36H92.4867Z" fill="white"/>
</svg>
