<svg width="89" height="35" viewBox="0 0 89 35" fill="none" xmlns="http://www.w3.org/2000/svg">
<rect y="4" width="26" height="26" rx="4" fill="#FC5B5C"/>
<circle cx="17.5" cy="21.5" r="6.5" fill="white"/>
<circle cx="6" cy="11" r="3" fill="white"/>
<path d="M44.304 14.768V16.96H39.728V19.328H43.152V21.456H39.728V26H36.992V14.768H44.304ZM47.118 16.144C46.638 16.144 46.2433 16.0053 45.934 15.728C45.6353 15.44 45.486 15.088 45.486 14.672C45.486 14.2453 45.6353 13.8933 45.934 13.616C46.2433 13.328 46.638 13.184 47.118 13.184C47.5873 13.184 47.9713 13.328 48.27 13.616C48.5793 13.8933 48.734 14.2453 48.734 14.672C48.734 15.088 48.5793 15.44 48.27 15.728C47.9713 16.0053 47.5873 16.144 47.118 16.144ZM48.478 17.072V26H45.742V17.072H48.478ZM53.1968 18.56C53.5168 18.0693 53.9168 17.6853 54.3968 17.408C54.8768 17.12 55.4101 16.976 55.9968 16.976V19.872H55.2448C54.5621 19.872 54.0501 20.0213 53.7088 20.32C53.3674 20.608 53.1968 21.12 53.1968 21.856V26H50.4608V17.072H53.1968V18.56ZM65.7205 21.392C65.7205 21.648 65.7045 21.9147 65.6725 22.192H59.4805C59.5232 22.7467 59.6992 23.1733 60.0085 23.472C60.3285 23.76 60.7178 23.904 61.1765 23.904C61.8592 23.904 62.3338 23.616 62.6005 23.04H65.5125C65.3632 23.6267 65.0912 24.1547 64.6965 24.624C64.3125 25.0933 63.8272 25.4613 63.2405 25.728C62.6538 25.9947 61.9978 26.128 61.2725 26.128C60.3978 26.128 59.6192 25.9413 58.9365 25.568C58.2538 25.1947 57.7205 24.6613 57.3365 23.968C56.9525 23.2747 56.7605 22.464 56.7605 21.536C56.7605 20.608 56.9472 19.7973 57.3205 19.104C57.7045 18.4107 58.2378 17.8773 58.9205 17.504C59.6032 17.1307 60.3872 16.944 61.2725 16.944C62.1365 16.944 62.9045 17.1253 63.5765 17.488C64.2485 17.8507 64.7712 18.368 65.1445 19.04C65.5285 19.712 65.7205 20.496 65.7205 21.392ZM62.9205 20.672C62.9205 20.2027 62.7605 19.8293 62.4405 19.552C62.1205 19.2747 61.7205 19.136 61.2405 19.136C60.7818 19.136 60.3925 19.2693 60.0725 19.536C59.7632 19.8027 59.5712 20.1813 59.4965 20.672H62.9205Z" fill="#1D1617"/>
<path d="M77.9799 26L74.5479 20.84L71.5239 26H66.8679L72.2679 17.432L66.7479 9.152H71.5239L74.9079 14.24L77.8839 9.152H82.5399L77.1879 17.648L82.7559 26H77.9799Z" fill="white"/>
</svg>
