<svg width="101" height="37" viewBox="0 0 101 37" fill="none" xmlns="http://www.w3.org/2000/svg">
<path d="M16.684 10.728V15.66H6.388V20.988H14.092V25.776H6.388V36H0.232V10.728H16.684ZM23.0155 13.824C21.9355 13.824 21.0475 13.512 20.3515 12.888C19.6795 12.24 19.3435 11.448 19.3435 10.512C19.3435 9.552 19.6795 8.76 20.3515 8.136C21.0475 7.488 21.9355 7.164 23.0155 7.164C24.0715 7.164 24.9355 7.488 25.6075 8.136C26.3035 8.76 26.6515 9.552 26.6515 10.512C26.6515 11.448 26.3035 12.24 25.6075 12.888C24.9355 13.512 24.0715 13.824 23.0155 13.824ZM26.0755 15.912V36H19.9195V15.912H26.0755ZM36.6927 19.26C37.4127 18.156 38.3127 17.292 39.3927 16.668C40.4727 16.02 41.6727 15.696 42.9927 15.696V22.212H41.3007C39.7647 22.212 38.6127 22.548 37.8447 23.22C37.0767 23.868 36.6927 25.02 36.6927 26.676V36H30.5367V15.912H36.6927V19.26ZM64.8711 25.632C64.8711 26.208 64.8351 26.808 64.7631 27.432H50.8311C50.9271 28.68 51.3231 29.64 52.0191 30.312C52.7391 30.96 53.6151 31.284 54.6471 31.284C56.1831 31.284 57.2511 30.636 57.8511 29.34H64.4031C64.0671 30.66 63.4551 31.848 62.5671 32.904C61.7031 33.96 60.6111 34.788 59.2911 35.388C57.9711 35.988 56.4951 36.288 54.8631 36.288C52.8951 36.288 51.1431 35.868 49.6071 35.028C48.0711 34.188 46.8711 32.988 46.0071 31.428C45.1431 29.868 44.7111 28.044 44.7111 25.956C44.7111 23.868 45.1311 22.044 45.9711 20.484C46.8351 18.924 48.0351 17.724 49.5711 16.884C51.1071 16.044 52.8711 15.624 54.8631 15.624C56.8071 15.624 58.5351 16.032 60.0471 16.848C61.5591 17.664 62.7351 18.828 63.5751 20.34C64.4391 21.852 64.8711 23.616 64.8711 25.632ZM58.5711 24.012C58.5711 22.956 58.2111 22.116 57.4911 21.492C56.7711 20.868 55.8711 20.556 54.7911 20.556C53.7591 20.556 52.8831 20.856 52.1631 21.456C51.4671 22.056 51.0351 22.908 50.8671 24.012H58.5711Z" fill="#1D1617"/>
<path d="M90.4867 36L83.3367 25.25L77.0367 36H67.3367L78.5867 18.15L67.0867 0.899999H77.0367L84.0867 11.5L90.2867 0.899999H99.9867L88.8367 18.6L100.437 36H90.4867Z" fill="url(#paint0_linear_804_1982)"/>
<defs>
<linearGradient id="paint0_linear_804_1982" x1="160" y1="36" x2="-32.51" y2="-32.95" gradientUnits="userSpaceOnUse">
<stop stop-color="#FD9292"/>
<stop offset="1" stop-color="#FFCC9D"/>
</linearGradient>
</defs>
</svg>
